<svg xmlns="http://www.w3.org/2000/svg" viewBox="0 0 100 100" role="img" aria-hidden="true">
  <!-- Ÿuï–fÊ · ÊÊJ -->
  <rect x="17" y="24" width="9" height="18" rx="4" fill="#23262f"/>
  <rect x="74" y="24" width="9" height="18" rx="4" fill="#23262f"/>
  <rect x="17" y="58" width="9" height="18" rx="4" fill="#23262f"/>
  <rect x="74" y="58" width="9" height="18" rx="4" fill="#23262f"/>
  <rect x="25" y="13" width="50" height="74" rx="17" fill="#f4f6fb" stroke="rgba(0,0,0,.22)" stroke-width="2"/>
  <rect x="29" y="14" width="13" height="7" rx="3" fill="#e8eef8"/>
  <rect x="58" y="14" width="13" height="7" rx="3" fill="#e8eef8"/>
  <rect x="32" y="23" width="36" height="19" rx="8" fill="#bfe8ff" opacity=".92"/>
  <rect x="34" y="44" width="32" height="14" rx="6" fill="#c7cedd" opacity=".55"/>
  <rect x="34" y="60" width="32" height="15" rx="7" fill="#bfe8ff" opacity=".7"/>
  <rect x="37" y="46" width="13" height="9" rx="2" fill="#ff4d4d"/>
  <rect x="50" y="46" width="13" height="9" rx="2" fill="#4d7dff"/>
  <rect x="28" y="38" width="44" height="4" rx="1" fill="#2a4a8a" opacity=".35"/>
</svg>
