<svg xmlns="http://www.w3.org/2000/svg" viewBox="0 0 100 100" role="img" aria-hidden="true">
  <rect x="15" y="28" width="10" height="18" rx="4" fill="#2d2640"/>
  <rect x="75" y="28" width="10" height="18" rx="4" fill="#2d2640"/>
  <rect x="15" y="56" width="10" height="18" rx="4" fill="#2d2640"/>
  <rect x="75" y="56" width="10" height="18" rx="4" fill="#2d2640"/>
  <path d="M28 18h44c8 0 14 6 14 14v36c0 8-6 14-14 14H28c-8 0-14-6-14-14V32c0-8 6-14 14-14z" fill="#e64980" stroke="rgba(0,0,0,.18)" stroke-width="2"/>
  <rect x="30" y="20" width="24" height="26" rx="10" fill="#bfe8ff" opacity=".9"/>
  <path d="M58 24h18c6 0 10 4 10 10v28c0 4-2 8-6 10l-22 8V24z" fill="#c2255c" opacity=".85"/>
  <rect x="32" y="22" width="8" height="5" rx="2" fill="#fff3bf"/>
  <rect x="44" y="22" width="6" height="5" rx="2" fill="#fff3bf"/>
  <rect x="62" y="38" width="14" height="3" rx="1" fill="#fff" opacity=".4"/>
</svg>
